<svg xmlns="http://www.w3.org/2000/svg" width="960" height="340" viewBox="0 0 960 340" role="img"><title>한 Neuron의 계산 경로</title><defs><marker id="t" markerWidth="8" markerHeight="8" refX="7" refY="4" orient="auto"><path d="M0 0 L8 4 L0 8Z" fill="#078b91"/></marker><marker id="o" markerWidth="8" markerHeight="8" refX="7" refY="4" orient="auto"><path d="M0 0 L8 4 L0 8Z" fill="#dc7424"/></marker></defs><rect width="960" height="340" rx="20" fill="#f5f8fb"/><g font-family="Arial, Apple SD Gothic Neo, sans-serif"><text x="40" y="47" font-size="25" fill="#15334c" text-anchor="start">한 Neuron의 계산 경로</text><rect x="35" y="115" width="195" height="85" rx="14" fill="white" stroke="#078b91" stroke-width="2"/><text x="132.5" y="150" font-size="22" fill="#078b91" text-anchor="middle">a⁽ᴸ⁻¹⁾ = 0.48</text><text x="132.5" y="180" font-size="16" fill="#15334c" text-anchor="middle">이전 Activation</text><path d="M240 157 L285 157" fill="none" stroke="#078b91" stroke-width="3" marker-end="url(#t)"/><rect x="300" y="115" width="190" height="85" rx="14" fill="white" stroke="#078b91" stroke-width="2"/><text x="395.0" y="150" font-size="22" fill="#078b91" text-anchor="middle">z⁽ᴸ⁾</text><text x="395.0" y="180" font-size="16" fill="#15334c" text-anchor="middle">Weight × Input + Bias</text><path d="M500 157 L540 157" fill="none" stroke="#078b91" stroke-width="3" marker-end="url(#t)"/><rect x="555" y="115" width="180" height="85" rx="14" fill="white" stroke="#078b91" stroke-width="2"/><text x="645.0" y="150" font-size="22" fill="#078b91" text-anchor="middle">a⁽ᴸ⁾ = 0.66</text><text x="645.0" y="180" font-size="16" fill="#15334c" text-anchor="middle">Sigmoid</text><path d="M745 157 L780 157" fill="none" stroke="#078b91" stroke-width="3" marker-end="url(#t)"/><rect x="795" y="115" width="130" height="85" rx="14" fill="white" stroke="#dc7424" stroke-width="2"/><text x="860.0" y="150" font-size="22" fill="#dc7424" text-anchor="middle">C₀</text><text x="860.0" y="180" font-size="16" fill="#15334c" text-anchor="middle">제곱오차</text><text x="855" y="260" font-size="21" fill="#dc7424" text-anchor="middle">y = 1.00</text><path d="M855 240 L855 207" fill="none" stroke="#dc7424" stroke-width="3" marker-end="url(#o)"/><text x="480" y="310" font-size="18" fill="#15334c" text-anchor="middle">z는 Activation 전의 값, a는 Activation 후의 값이다.</text></g></svg>